<mxfile host="app.diagrams.net" modified="2023-05-23T11:36:33.201Z" agent="Mozilla/5.0 (Windows NT 10.0; Win64; x64) AppleWebKit/537.36 (KHTML, like Gecko) Chrome/110.0.0.0 YaBrowser/23.3.4.603 Yowser/2.5 Safari/537.36" etag="njaGtlmpyDr5hg9l4QjX" version="21.3.2" type="device">
  <diagram name="Страница 1" id="ZJ-ewDxlsZu0PtFpn3gT">
    <mxGraphModel dx="1386" dy="791" grid="1" gridSize="10" guides="1" tooltips="1" connect="1" arrows="1" fold="1" page="1" pageScale="1" pageWidth="827" pageHeight="1169" math="0" shadow="0">
      <root>
        <mxCell id="0" />
        <mxCell id="1" parent="0" />
        <mxCell id="mh43r5y5EaP5MpA7Zng7-1" value="Student" style="rounded=0;whiteSpace=wrap;html=1;fillColor=#ffe6cc;strokeColor=#d79b00;" vertex="1" parent="1">
          <mxGeometry x="40" y="80" width="160" height="50" as="geometry" />
        </mxCell>
        <mxCell id="mh43r5y5EaP5MpA7Zng7-2" value="ФИО (текст)" style="rounded=0;whiteSpace=wrap;html=1;" vertex="1" parent="1">
          <mxGeometry x="40" y="160" width="160" height="30" as="geometry" />
        </mxCell>
        <mxCell id="mh43r5y5EaP5MpA7Zng7-7" value="Номер телефона (текст)" style="rounded=0;whiteSpace=wrap;html=1;" vertex="1" parent="1">
          <mxGeometry x="40" y="190" width="160" height="30" as="geometry" />
        </mxCell>
        <mxCell id="mh43r5y5EaP5MpA7Zng7-38" style="edgeStyle=orthogonalEdgeStyle;rounded=0;orthogonalLoop=1;jettySize=auto;html=1;exitX=1;exitY=0.5;exitDx=0;exitDy=0;" edge="1" parent="1" source="mh43r5y5EaP5MpA7Zng7-10" target="mh43r5y5EaP5MpA7Zng7-31">
          <mxGeometry relative="1" as="geometry" />
        </mxCell>
        <mxCell id="mh43r5y5EaP5MpA7Zng7-10" value="id (счетчик)" style="rounded=0;whiteSpace=wrap;html=1;" vertex="1" parent="1">
          <mxGeometry x="40" y="130" width="160" height="30" as="geometry" />
        </mxCell>
        <mxCell id="mh43r5y5EaP5MpA7Zng7-13" value="Class" style="rounded=0;whiteSpace=wrap;html=1;fillColor=#f8cecc;strokeColor=#b85450;" vertex="1" parent="1">
          <mxGeometry x="660" y="80" width="150" height="50" as="geometry" />
        </mxCell>
        <mxCell id="mh43r5y5EaP5MpA7Zng7-42" style="edgeStyle=orthogonalEdgeStyle;rounded=0;orthogonalLoop=1;jettySize=auto;html=1;exitX=0;exitY=0.5;exitDx=0;exitDy=0;entryX=1;entryY=0.5;entryDx=0;entryDy=0;" edge="1" parent="1" source="mh43r5y5EaP5MpA7Zng7-14" target="mh43r5y5EaP5MpA7Zng7-39">
          <mxGeometry relative="1" as="geometry" />
        </mxCell>
        <mxCell id="mh43r5y5EaP5MpA7Zng7-14" value="id (счетчик)" style="rounded=0;whiteSpace=wrap;html=1;" vertex="1" parent="1">
          <mxGeometry x="660" y="130" width="150" height="30" as="geometry" />
        </mxCell>
        <mxCell id="mh43r5y5EaP5MpA7Zng7-15" value="Предмет (текст)&amp;nbsp;" style="rounded=0;whiteSpace=wrap;html=1;" vertex="1" parent="1">
          <mxGeometry x="660" y="160" width="150" height="30" as="geometry" />
        </mxCell>
        <mxCell id="mh43r5y5EaP5MpA7Zng7-16" value="Преподаватель (текст)&amp;nbsp;" style="rounded=0;whiteSpace=wrap;html=1;" vertex="1" parent="1">
          <mxGeometry x="660" y="190" width="150" height="30" as="geometry" />
        </mxCell>
        <mxCell id="mh43r5y5EaP5MpA7Zng7-25" value="Course" style="rounded=0;whiteSpace=wrap;html=1;fillColor=#fff2cc;strokeColor=#d6b656;" vertex="1" parent="1">
          <mxGeometry x="350" y="240" width="156" height="50" as="geometry" />
        </mxCell>
        <mxCell id="mh43r5y5EaP5MpA7Zng7-26" value="Продолжительность (int)" style="rounded=0;whiteSpace=wrap;html=1;" vertex="1" parent="1">
          <mxGeometry x="350" y="320" width="156" height="30" as="geometry" />
        </mxCell>
        <mxCell id="mh43r5y5EaP5MpA7Zng7-27" value="Кол-во уроков (int)" style="rounded=0;whiteSpace=wrap;html=1;" vertex="1" parent="1">
          <mxGeometry x="350" y="350" width="156" height="30" as="geometry" />
        </mxCell>
        <mxCell id="mh43r5y5EaP5MpA7Zng7-37" style="edgeStyle=orthogonalEdgeStyle;rounded=0;orthogonalLoop=1;jettySize=auto;html=1;exitX=1;exitY=0.5;exitDx=0;exitDy=0;entryX=1;entryY=0.5;entryDx=0;entryDy=0;" edge="1" parent="1" source="mh43r5y5EaP5MpA7Zng7-28" target="mh43r5y5EaP5MpA7Zng7-32">
          <mxGeometry relative="1" as="geometry" />
        </mxCell>
        <mxCell id="mh43r5y5EaP5MpA7Zng7-28" value="id (счетчик)" style="rounded=0;whiteSpace=wrap;html=1;" vertex="1" parent="1">
          <mxGeometry x="350" y="290" width="156" height="30" as="geometry" />
        </mxCell>
        <mxCell id="mh43r5y5EaP5MpA7Zng7-29" value="Student-Course" style="rounded=0;whiteSpace=wrap;html=1;fillColor=#f5f5f5;fontColor=#333333;strokeColor=#666666;" vertex="1" parent="1">
          <mxGeometry x="350" y="60" width="140" height="40" as="geometry" />
        </mxCell>
        <mxCell id="mh43r5y5EaP5MpA7Zng7-30" value="id (счетчик)" style="rounded=0;whiteSpace=wrap;html=1;" vertex="1" parent="1">
          <mxGeometry x="350" y="100" width="140" height="30" as="geometry" />
        </mxCell>
        <mxCell id="mh43r5y5EaP5MpA7Zng7-31" value="student_id (счетчик)" style="rounded=0;whiteSpace=wrap;html=1;" vertex="1" parent="1">
          <mxGeometry x="350" y="130" width="140" height="30" as="geometry" />
        </mxCell>
        <mxCell id="mh43r5y5EaP5MpA7Zng7-32" value="сourse_id (счетчик)" style="rounded=0;whiteSpace=wrap;html=1;" vertex="1" parent="1">
          <mxGeometry x="350" y="160" width="140" height="30" as="geometry" />
        </mxCell>
        <mxCell id="mh43r5y5EaP5MpA7Zng7-39" value="class_id (счетчик)" style="rounded=0;whiteSpace=wrap;html=1;" vertex="1" parent="1">
          <mxGeometry x="350" y="380" width="156" height="30" as="geometry" />
        </mxCell>
        <mxCell id="mh43r5y5EaP5MpA7Zng7-41" style="edgeStyle=orthogonalEdgeStyle;rounded=0;orthogonalLoop=1;jettySize=auto;html=1;exitX=0.5;exitY=1;exitDx=0;exitDy=0;" edge="1" parent="1" source="mh43r5y5EaP5MpA7Zng7-39" target="mh43r5y5EaP5MpA7Zng7-39">
          <mxGeometry relative="1" as="geometry" />
        </mxCell>
      </root>
    </mxGraphModel>
  </diagram>
</mxfile>
